<svg width="17" height="21" viewBox="0 0 17 21" fill="none" xmlns="http://www.w3.org/2000/svg">
<path d="M3.625 0H13.2917C14.2531 0 15.1751 0.32924 15.8549 0.915291C16.5348 1.50134 16.9167 2.2962 16.9167 3.125V18.75C16.9166 19.1539 16.7803 19.549 16.5244 19.8874C16.2685 20.2257 15.9041 20.4926 15.4754 20.6556C15.0468 20.8186 14.5724 20.8707 14.1101 20.8056C13.6477 20.7404 13.2173 20.5608 12.8712 20.2885L9.27275 17.4583C9.05014 17.2832 8.75968 17.1862 8.45833 17.1862C8.15699 17.1862 7.86653 17.2832 7.64392 17.4583L4.0455 20.2885C3.6994 20.5608 3.26898 20.7404 2.80662 20.8056C2.34425 20.8707 1.86988 20.8186 1.44124 20.6556C1.01259 20.4926 0.648153 20.2257 0.392274 19.8874C0.136395 19.549 0.000108375 19.1539 0 18.75L0 3.125C0 2.2962 0.381919 1.50134 1.06174 0.915291C1.74156 0.32924 2.66359 0 3.625 0ZM4.83333 8.33333C4.51286 8.33333 4.20552 8.44308 3.97891 8.63843C3.75231 8.83378 3.625 9.09873 3.625 9.375C3.625 9.65127 3.75231 9.91622 3.97891 10.1116C4.20552 10.3069 4.51286 10.4167 4.83333 10.4167H12.0833C12.4038 10.4167 12.7112 10.3069 12.9378 10.1116C13.1644 9.91622 13.2917 9.65127 13.2917 9.375C13.2917 9.09873 13.1644 8.83378 12.9378 8.63843C12.7112 8.44308 12.4038 8.33333 12.0833 8.33333H4.83333Z" fill="#1AB65C"/>
</svg>
